<svg width="100%" height="100%" id="svg" viewBox="0 0 1440 590" xmlns="http://www.w3.org/2000/svg" class="transition duration-300 ease-in-out delay-150"><defs><linearGradient id="gradient" x1="0%" y1="50%" x2="100%" y2="50%"><stop offset="5%" stop-color="#F78DA7"></stop><stop offset="95%" stop-color="#8ED1FC"></stop></linearGradient></defs><path d="M 0,600 C 0,600 0,200 0,200 C 84.02870813397132,203.73205741626793 168.05741626794264,207.46411483253587 260,231 C 351.94258373205736,254.53588516746413 451.7990430622009,297.8755980861244 542,274 C 632.2009569377991,250.1244019138756 712.7464114832536,159.03349282296648 816,131 C 919.2535885167464,102.9665071770335 1045.2153110047848,137.99043062200957 1153,160 C 1260.7846889952152,182.00956937799043 1350.3923444976076,191.00478468899522 1440,200 C 1440,200 1440,600 1440,600 Z" stroke="none" stroke-width="0" fill="url(#gradient)" fill-opacity="0.53" class="transition-all duration-300 ease-in-out delay-150 path-0"></path><defs><linearGradient id="gradient" x1="0%" y1="50%" x2="100%" y2="50%"><stop offset="5%" stop-color="#F78DA7"></stop><stop offset="95%" stop-color="#8ED1FC"></stop></linearGradient></defs><path d="M 0,600 C 0,600 0,400 0,400 C 131.68421052631578,433.377990430622 263.36842105263156,466.755980861244 339,459 C 414.63157894736844,451.244019138756 434.2105263157895,402.354066985646 529,394 C 623.7894736842105,385.645933014354 793.7894736842105,417.8277511961722 894,422 C 994.2105263157895,426.1722488038278 1024.6315789473686,402.3349282296651 1104,394 C 1183.3684210526314,385.6650717703349 1311.6842105263158,392.83253588516743 1440,400 C 1440,400 1440,600 1440,600 Z" stroke="none" stroke-width="0" fill="url(#gradient)" fill-opacity="1" class="transition-all duration-300 ease-in-out delay-150 path-1"></path></svg>